<?xml version="1.0" encoding="UTF-8" standalone="no"?>
<!-- Created with Inkscape (http://www.inkscape.org/) -->

<svg
   xmlns:dc="http://purl.org/dc/elements/1.1/"
   xmlns:cc="http://creativecommons.org/ns#"
   xmlns:rdf="http://www.w3.org/1999/02/22-rdf-syntax-ns#"
   xmlns:svg="http://www.w3.org/2000/svg"
   xmlns="http://www.w3.org/2000/svg"
   xmlns:sodipodi="http://sodipodi.sourceforge.net/DTD/sodipodi-0.dtd"
   xmlns:inkscape="http://www.inkscape.org/namespaces/inkscape"
   width="128"
   height="128"
   id="svg2"
   version="1.1"
   inkscape:version="0.48.4 r9939"
   inkscape:export-filename="C:\xampp\htdocs\jimhub\assets\gamesbg.png"
   inkscape:export-xdpi="90"
   inkscape:export-ydpi="90"
   sodipodi:docname="New document 1">
  <defs
     id="defs4" />
  <sodipodi:namedview
     id="base"
     pagecolor="#ffffff"
     bordercolor="#666666"
     borderopacity="1.0"
     inkscape:pageopacity="0.0"
     inkscape:pageshadow="2"
     inkscape:zoom="3.959798"
     inkscape:cx="125.9409"
     inkscape:cy="66.722358"
     inkscape:document-units="px"
     inkscape:current-layer="layer1"
     showgrid="false"
     inkscape:window-width="1856"
     inkscape:window-height="1058"
     inkscape:window-x="1672"
     inkscape:window-y="-8"
     inkscape:window-maximized="1" />
  <metadata
     id="metadata7">
    <rdf:RDF>
      <cc:Work
         rdf:about="">
        <dc:format>image/svg+xml</dc:format>
        <dc:type
           rdf:resource="http://purl.org/dc/dcmitype/StillImage" />
        <dc:title></dc:title>
      </cc:Work>
    </rdf:RDF>
  </metadata>
  <g
     inkscape:label="Layer 1"
     inkscape:groupmode="layer"
     id="layer1"
     transform="translate(0,-924.36217)">
    <path
       style="fill:#000000;fill-opacity:1;stroke:none;opacity:0.33"
       d="m 49.750482,963.79145 6.16096,-0.12731 -1.981934,-33.64777 4.106615,-2.53157 6.227838,-0.387 4.016735,2.32604 4.76176,35.26285 41.932114,1.61054 c 0.91631,0.10954 1.30232,0.58393 1.36472,1.60596 l -0.0783,11.37909 c 0.005,0.70334 -0.0295,1.05028 -0.2012,1.47279 l -17.72724,66.95013 c -0.405894,0.6322 -0.488604,1.3971 -2.615106,1.3239 l -86.0738062,-7.8963 c -0.5441627,-0.1314 -1.2003098,0 -1.3677172,-1.0047 l -2.1928085,-16.4228 c -0.2147222,-0.7902 0.073046,-1.2715 0.4517246,-1.6967 L 47.757968,964.54001 c 0.341044,-0.44825 0.812177,-0.81649 1.992514,-0.74856 z"
       id="rect2985"
       inkscape:connector-curvature="0"
       sodipodi:nodetypes="ccccccccccccccccccc" />
    <path
       sodipodi:type="arc"
       style="fill:#aa0000;fill-opacity:1;stroke:none;opacity:0.33"
       id="path2988"
       sodipodi:cx="82.201164"
       sodipodi:cy="91.634506"
       sodipodi:rx="7.9549513"
       sodipodi:ry="4.7982244"
       d="m 90.156116,91.634506 a 7.9549513,4.7982244 0 1 1 -15.909903,0 7.9549513,4.7982244 0 1 1 15.909903,0 z"
       transform="translate(0,924.36217)" />
  </g>
</svg>
